# xmcd
#
# Track frame offsets:
#	150
#	16701
#	32594
#	45235
#	66269
#	80723
#	95755
#	105117
#	117297
#	132471
#	144449
#	158247
#	171336
#
# Disc length: 2424 seconds
# Revision: 0
# Processed by: cddbd v1.5.2PL0 Copyright (c) Steve Scherf et al.
# Submitted via: dBpowerAMP V12.0
#
DISCID=a309760d
DTITLE=Carolina Blue - Goin' Home Today
DYEAR=2016
DGENRE=Bluegrass
TTITLE0=Rocky Road Blues
TTITLE1=The Ballad Of Flem Galloway
TTITLE2=Goin' Home Today
TTITLE3=I Just Wanted You To Know
TTITLE4=Johnny Walker
TTITLE5=Blue Some Other Day
TTITLE6=Walking Through The Flames
TTITLE7=Detroit City
TTITLE8=Do You Remember Me
TTITLE9=Carolina Ride
TTITLE10=Mountain Home
TTITLE11=Just Call Me Lonesome
TTITLE12=Beyond The Sea
EXTD=
EXTT0=
EXTT1=
EXTT2=
EXTT3=
EXTT4=
EXTT5=
EXTT6=
EXTT7=
EXTT8=
EXTT9=
EXTT10=
EXTT11=
EXTT12=
PLAYORDER=
